<svg width="378" height="101" viewBox="0 0 378 101" fill="none" xmlns="http://www.w3.org/2000/svg">
<path d="M93.04 6.18802H115.373V13.5974H101.941V17.1934H113.472V24.076H101.941V35.08H93.04V6.18802Z" fill="#1B225B"/>
<path d="M122.699 6.18802H131.4L141.919 35.08H132.695L131.48 30.9507H122.295L121 35.08H112.057L122.699 6.18802ZM129.7 24.764L127.108 15.8587H127.029L124.236 24.764H129.7Z" fill="#1B225B"/>
<path d="M143.336 6.18802H152.24V16.1467H152.319L160.249 6.18802H171.213L160.735 17.4827L172.915 35.08H161.828L154.707 23.8294L152.24 26.5414V35.08H143.336V6.18802Z" fill="#1B225B"/>
<path d="M199.983 23.9107C199.983 31.9254 195.655 35.7667 186.835 35.7667C178.013 35.7667 173.644 31.9254 173.644 23.9107V6.18806H182.545V21.9281C182.545 24.8841 182.545 28.5667 186.875 28.5667C191.081 28.5667 191.081 24.8841 191.081 21.9281V6.18806H199.983V23.9107Z" fill="#1B225B"/>
<path d="M203.671 6.18802H212.569V27.6747H225.356V35.08H203.671V6.18802Z" fill="#1B225B"/>
<path d="M228.269 13.5974H220.181V6.18802H245.261V13.5974H237.171V35.08H228.269V13.5974Z" fill="#1B225B"/>
<path d="M247.775 6.18802H256.879L265.296 21.6467H265.376V6.18802H273.791V35.08H265.135L256.269 19.2974H256.189V35.08H247.775V6.18802Z" fill="#1B225B"/>
<path d="M277.637 6.18802H286.538V35.08H277.637V6.18802ZM283.869 4.53335H278.124L282.127 1.42133e-05H290.825L283.869 4.53335Z" fill="#1B225B"/>
<path d="M124.724 38.6853H133.828L142.245 54.1413H142.325V38.6853H150.741V67.5746H142.083L133.221 51.7946H133.141V67.5746H124.724V38.6853Z" fill="#1B225B"/>
<path d="M154.587 38.6853H178.5V46.088H163.485V49.6906H177.124V56.568H163.485V60.1706H178.944V67.5746H154.587V38.6853Z" fill="#1B225B"/>
<path d="M182.223 38.6853H194.888L199.017 55.6786H199.095L203.223 38.6853H215.887V67.5746H207.468V49.044H207.389L202.371 67.5746H195.736L190.72 49.044H190.64V67.5746H182.223V38.6853Z" fill="#1B225B"/>
<path d="M233.449 37.9974C242.231 37.9974 248.095 44.3094 248.095 53.1294C248.095 61.9507 242.231 68.2614 233.449 68.2614C224.671 68.2614 218.801 61.9507 218.801 53.1294C218.801 44.3094 224.671 37.9974 233.449 37.9974ZM233.449 61.06C235.715 61.06 239.197 59.564 239.197 53.1294C239.197 46.6947 235.715 45.2 233.449 45.2C231.184 45.2 227.705 46.6947 227.705 53.1294C227.705 59.564 231.184 61.06 233.449 61.06Z" fill="#1B225B"/>
<path d="M269.26 49.4481C269.096 48.3974 268.288 45.2001 264.607 45.2001C260.44 45.2001 259.104 49.2454 259.104 53.1308C259.104 57.0148 260.44 61.0614 264.607 61.0614C267.604 61.0614 268.776 58.9574 269.299 56.2468H278.041C278.041 62.0721 273.309 68.2628 264.848 68.2628C255.503 68.2628 250.203 61.6681 250.203 53.1308C250.203 44.0268 255.948 37.9988 264.848 37.9988C272.781 38.0388 277.151 42.2054 277.916 49.4481H269.26Z" fill="#1B225B"/>
<path d="M280.996 38.6853H290.097L298.512 54.1413H298.595V38.6853H307.012V67.5746H298.353L289.491 51.7946H289.411V67.5746H280.996V38.6853Z" fill="#1B225B"/>
<path d="M310.859 67.5747H319.76V38.6854H310.859V67.5747Z" fill="#1B225B"/>
<path d="M341.731 49.4481C341.572 48.3974 340.76 45.2001 337.077 45.2001C332.908 45.2001 331.575 49.2454 331.575 53.1308C331.575 57.0148 332.908 61.0614 337.077 61.0614C340.069 61.0614 341.247 58.9574 341.772 56.2468H350.509C350.509 62.0721 345.775 68.2628 337.319 68.2628C327.976 68.2628 322.673 61.6681 322.673 53.1308C322.673 44.0268 328.421 37.9988 337.319 37.9988C345.249 38.0388 349.621 42.2054 350.387 49.4481H341.731Z" fill="#1B225B"/>
<path d="M353.424 38.6853H377.783V46.088H362.328V49.6906H375.965V56.568H362.328V60.1706H377.783V67.5746H353.424V38.6853Z" fill="#1B225B"/>
<path d="M93.04 71.1801H108.86C116.467 71.1801 118.085 75.4681 118.085 78.4214C118.085 81.3361 116.669 82.9134 114.525 84.0867C117.115 84.9761 119.541 87.0401 119.541 91.2894C119.541 97.0747 114.525 100.068 109.427 100.068H93.04V71.1801ZM101.941 82.4281H106.636C108.496 82.4281 109.669 81.9014 109.669 80.0401C109.669 78.5827 108.456 78.0587 106.636 78.0587H101.941V82.4281ZM101.941 93.1907H107.16C109.021 93.1907 110.639 92.6654 110.639 90.4387C110.639 88.7387 109.629 87.8081 107.527 87.8081H101.941V93.1907Z" fill="#1B225B"/>
<path d="M122.215 71.1801H139.168C144.225 71.1801 148.596 73.9707 148.596 79.4334C148.596 82.4281 147.219 85.5827 144.267 86.6761C146.693 87.6067 148.191 90.2761 148.513 93.8787C148.635 95.2934 148.676 98.7334 149.487 100.068H140.584C140.139 98.6121 139.976 97.1147 139.855 95.6174C139.613 92.8654 139.369 89.9934 135.851 89.9934H131.116V100.068H122.215V71.1801ZM131.116 83.8027H135.769C137.428 83.8027 139.693 83.5201 139.693 80.9307C139.693 79.1094 138.683 78.0587 135.283 78.0587H131.116V83.8027Z" fill="#1B225B"/>
<path d="M151.431 71.1801H160.535L168.949 86.6361H169.031V71.1801H177.447V100.068H168.788L159.927 84.2894H159.845V100.068H151.431V71.1801Z" fill="#1B225B"/>
<path d="M195.089 70.4907C203.872 70.4907 209.739 76.804 209.739 85.624C209.739 94.444 203.872 100.755 195.089 100.755C186.311 100.755 180.443 94.444 180.443 85.624C180.443 76.804 186.311 70.4907 195.089 70.4907ZM195.089 93.5534C197.356 93.5534 200.837 92.0574 200.837 85.624C200.837 79.1894 197.356 77.6934 195.089 77.6934C192.825 77.6934 189.345 79.1894 189.345 85.624C189.345 92.0574 192.825 93.5534 195.089 93.5534Z" fill="#1B225B"/>
<path d="M62.532 37.6841V6.41739H0V100.223H62.532V68.9534H31.26V37.6841H62.532Z" fill="#1B225B"/>
</svg>
